<?xml version="1.0" encoding="UTF-8"?>
<svg xmlns="http://www.w3.org/2000/svg" viewBox="0 0 160 160">
  <g id="uuid-ebbe6412-bef1-4169-9086-60db38b5f2b6" data-name="Network">
    <path d="M123.25,33.83c-7.24,0-13.11,5.87-13.11,13.11,0,2.02.47,3.93,1.29,5.64-.64.46-1.32,1.07-2.05,1.79-2.6,2.59-5.46,5.58-8.07,8.21-2.49,2.6-4.81,4.36-8.2,4.53-4.09.39-8.75-.16-12.71.5-1.86.32-3.16,1.49-4.5,2.83-3.59,3.6-10.96,11.02-17.29,17.38-2.68,2.7-5.17,5.2-7.1,7.14-2.14,2.16-3.57,3.44-3.33,5,.46,2.41,3.22,5.03,5.38,5.24,2.74-.28,3.62-2.49,6.45-5.04,7.09-7.1,15.15-15.74,20.93-21.19,2.14-1.76,4.41-1.73,7.29-1.83,3.81-.16,9.35.39,12.26-.88,3.97-2.21,6.09-5.54,9.83-9,2.05-2.09,4.28-4.33,6.26-6.36.66-.67,1.19-1.29,1.61-1.88,1.56.65,3.27,1.02,5.06,1.02,7.24,0,13.11-5.87,13.11-13.11s-5.87-13.11-13.11-13.11ZM123.25,53.28c-3.5,0-6.34-2.84-6.34-6.34s2.84-6.34,6.34-6.34,6.34,2.84,6.34,6.34-2.84,6.34-6.34,6.34Z" fill="#3c83f6"/>
  </g>
  <g id="uuid-1adfd3ac-ff19-41f5-a284-483a64305fe2" data-name="Gear">
    <g>
      <path d="M47.69,80c0-17.84,14.46-32.31,32.31-32.31,1.97,0,3.89.19,5.76.52l14.06-14.06c-2.96-1.28-6.06-2.3-9.29-2.99l-2.39-10.6c-2.66-.36-5.37-.56-8.14-.56s-5.47.2-8.14.56l-2.39,10.6c-5.72,1.23-11.08,3.44-15.89,6.44l-9.26-5.85c-4.34,3.21-8.22,7.01-11.55,11.25l5.76,9.12c-3.31,4.92-5.76,10.46-7.15,16.41l-10.7,2.42c-.44,2.95-.68,5.96-.68,9.03,0,2.27.14,4.51.38,6.72l10.5,2.37c1.18,6.4,3.57,12.36,6.93,17.66l-5.83,9.24c3.09,4.12,6.71,7.81,10.74,11.01l9.1-5.75c3.17,2.17,6.61,3.98,10.26,5.38l7.41-16.08c-12.68-4.36-21.8-16.39-21.8-30.55Z" fill="#f60"/>
      <path d="M72.39,139.5c2.5.32,5.03.5,7.61.5s5.12-.18,7.61-.5l2.38-10.55c6.63-1.35,12.78-4.01,18.18-7.7l9.1,5.75c4.03-3.2,7.65-6.9,10.74-11.01l-5.83-9.24c3.36-5.29,5.76-11.26,6.93-17.66l10.5-2.37c.25-2.21.38-4.45.38-6.72,0-3.07-.23-6.09-.68-9.03l-10.7-2.42c-.47-2.01-1.07-3.97-1.78-5.88l-14.66,14.66c.07.88.12,1.77.12,2.67,0,17.84-14.46,32.31-32.31,32.31-3.68,0-7.21-.62-10.51-1.76l-7.41,16.08c2.55.98,5.19,1.77,7.92,2.33l2.38,10.55Z" fill="#3c83f6"/>
    </g>
  </g>
</svg>